# xmcd
#
# Track frame offsets:
#	150
#	5017
#	14247
#	38168
#	63303
#	98754
#	122392
#	143140
#	171824
#
# Disc length: 2590 seconds
#
# Revision: 0
# Processed by: cddbd v1.5.1PL2 Copyright (c) Steve Scherf et al.
# Submitted via: dBpowerAMP V4.0
#
DISCID=720a1c09
DTITLE=Tommi Nickolz - Tha Darksyde Ridah
DYEAR=1999
DGENRE=Gangsta
TTITLE0=Intro(Johnny)
TTITLE1=I'm a Ridah Now
TTITLE2=Cash Flo
TTITLE3=Killa Foe'z
TTITLE4=I Had to Do it featuring yoshi Blade
TTITLE5=I feel your pain
TTITLE6=Ready to Ride
TTITLE7=Tha Darksyde Ridah
TTITLE8=Blood Thirsty
EXTD=was on Dj d man "Destroy and Rebuild",but changed his style on that song for the compilation.
EXTT0=
EXTT1=
EXTT2=
EXTT3=
EXTT4=
EXTT5=
EXTT6=
EXTT7=
EXTT8=
PLAYORDER=
